<svg id="Layer_1" data-name="Layer 1" xmlns="http://www.w3.org/2000/svg" viewBox="0 0 420 420"><defs><style>.cls-1{opacity:0.2;}.cls-2{fill:#d8eaf3;}</style></defs><g class="cls-1"><polygon class="cls-2" points="175.82 44.84 169.86 26.5 163.9 44.84 144.62 44.84 160.22 56.17 154.26 74.51 169.86 63.18 185.46 74.51 179.5 56.17 195.1 44.84 175.82 44.84"/><polygon class="cls-2" points="160.22 374.66 154.26 393 169.86 381.67 185.46 393 179.5 374.66 195.1 363.33 175.82 363.33 169.86 344.99 163.9 363.33 144.62 363.33 160.22 374.66"/><polygon class="cls-2" points="96.19 66.17 90.23 47.83 84.28 66.17 64.99 66.17 80.59 77.51 74.64 95.84 90.23 84.51 105.83 95.84 99.88 77.51 115.48 66.17 96.19 66.17"/><polygon class="cls-2" points="80.59 353.33 74.64 371.67 90.23 360.33 105.83 371.67 99.88 353.33 115.48 341.99 96.19 341.99 90.23 323.65 84.28 341.99 64.99 341.99 80.59 353.33"/><polygon class="cls-2" points="335.06 204.08 329.1 185.74 323.14 204.08 303.86 204.08 319.46 215.42 313.5 233.75 329.1 222.42 344.7 233.75 338.74 215.42 354.34 204.08 335.06 204.08"/><polygon class="cls-2" points="255.44 66.17 249.48 47.83 243.52 66.17 224.24 66.17 239.84 77.51 233.88 95.84 249.48 84.51 265.08 95.84 259.12 77.51 274.72 66.17 255.44 66.17"/><polygon class="cls-2" points="313.73 124.46 307.77 106.12 301.81 124.46 282.53 124.46 298.13 135.79 292.17 154.13 307.77 142.8 323.37 154.13 317.41 135.79 333.01 124.46 313.73 124.46"/><polygon class="cls-2" points="298.13 295.04 292.17 313.38 307.77 302.04 323.37 313.38 317.41 295.04 333.01 283.7 313.73 283.7 307.77 265.37 301.81 283.7 282.53 283.7 298.13 295.04"/><polygon class="cls-2" points="239.84 353.33 233.88 371.67 249.48 360.33 265.08 371.67 259.12 353.33 274.72 341.99 255.44 341.99 249.48 323.65 243.52 341.99 224.24 341.99 239.84 353.33"/></g></svg>