<svg id="Layer_1" data-name="Layer 1" xmlns="http://www.w3.org/2000/svg" viewBox="0 0 500 200"><defs><style>.cls-1{fill:#fff;}.cls-2{fill:#283384;}.cls-3{fill:#ffcd00;}.cls-4{fill:#c72118;}.cls-5{fill:#dfdfdf;}.cls-6{fill:#3c9e36;}.cls-7{fill:#dc7226;}.cls-8{fill:#e7e6e5;}</style></defs><path class="cls-1" d="M228.2,79V23.49h8V71.07h15.76v8Z"/><path class="cls-1" d="M279.6,62.25H263.84v5.39a3.78,3.78,0,0,0,1.06,2.88,3.91,3.91,0,0,0,2.84,1c1.51,0,2.51-.45,3-1.33a7.11,7.11,0,0,0,.89-2.65h8a11.45,11.45,0,0,1-6.94,11,12.47,12.47,0,0,1-4.92.93,12.18,12.18,0,0,1-6.35-1.56,10.76,10.76,0,0,1-4-4.13,10.91,10.91,0,0,1-1.17-3.59,29,29,0,0,1-.31-4.45v-13a29.14,29.14,0,0,1,.31-4.45,10.91,10.91,0,0,1,1.17-3.59,10.76,10.76,0,0,1,4-4.13A12.18,12.18,0,0,1,267.74,39a12.6,12.6,0,0,1,5,.94,11.07,11.07,0,0,1,3.78,2.57,12.78,12.78,0,0,1,3.12,8.81ZM263.84,56h7.8V51.49a4.81,4.81,0,0,0-1.05-3.39,4.15,4.15,0,0,0-5.69,0,4.77,4.77,0,0,0-1.06,3.39Z"/><path class="cls-1" d="M293.87,67.64a3.78,3.78,0,0,0,1.06,2.88,3.91,3.91,0,0,0,2.84,1c1.51,0,2.51-.45,3-1.33a7.11,7.11,0,0,0,.89-2.65h8a11.45,11.45,0,0,1-6.94,11,12.47,12.47,0,0,1-4.92.93,12.18,12.18,0,0,1-6.35-1.56,10.69,10.69,0,0,1-4-4.13,10.91,10.91,0,0,1-1.17-3.59,29,29,0,0,1-.31-4.45v-13a29.14,29.14,0,0,1,.31-4.45,10.91,10.91,0,0,1,1.17-3.59,10.69,10.69,0,0,1,4-4.13A12.18,12.18,0,0,1,297.77,39a12.6,12.6,0,0,1,5,.94,11.07,11.07,0,0,1,3.78,2.57,13.22,13.22,0,0,1,3.12,9.13h-8a5.07,5.07,0,0,0-1.05-3.55,4.15,4.15,0,0,0-5.69,0,4.77,4.77,0,0,0-1.06,3.39Z"/><path class="cls-1" d="M312.36,79V72.71L325.23,46.5H313.37v-7h20.91V45.8L321.41,71.54h12.87V79Z"/><path class="cls-1" d="M361.42,62.25H345.66v5.39a3.78,3.78,0,0,0,1.06,2.88,3.91,3.91,0,0,0,2.84,1c1.51,0,2.51-.45,3-1.33a7.11,7.11,0,0,0,.89-2.65h8a11.45,11.45,0,0,1-6.94,11,12.47,12.47,0,0,1-4.92.93,12.18,12.18,0,0,1-6.35-1.56,10.76,10.76,0,0,1-4-4.13A10.91,10.91,0,0,1,338,70.21a29,29,0,0,1-.31-4.45v-13a29.14,29.14,0,0,1,.31-4.45,10.91,10.91,0,0,1,1.17-3.59,10.76,10.76,0,0,1,4-4.13A12.18,12.18,0,0,1,349.56,39a12.57,12.57,0,0,1,5,.94,11.07,11.07,0,0,1,3.78,2.57,12.78,12.78,0,0,1,3.12,8.81ZM345.66,56h7.8V51.49a4.81,4.81,0,0,0-1-3.39,4.15,4.15,0,0,0-5.69,0,4.77,4.77,0,0,0-1.06,3.39Z"/><path class="cls-1" d="M367.27,79V39.48h8V43.3h.15a11.29,11.29,0,0,1,3-3.08A7.72,7.72,0,0,1,382.87,39a9,9,0,0,1,3,.51,6.88,6.88,0,0,1,2.66,1.67,8.52,8.52,0,0,1,1.87,3,12.51,12.51,0,0,1,.7,4.48V79h-8V51.65a5.36,5.36,0,0,0-1-3.44A3.52,3.52,0,0,0,379.2,47a3.34,3.34,0,0,0-3.12,1.4,7.89,7.89,0,0,0-.85,4.06V79Z"/><path class="cls-1" d="M397.61,31.44v-8h8v8Zm0,47.58V39.48h8V79Z"/><path class="cls-1" d="M435.13,62.25H419.37v5.39a3.81,3.81,0,0,0,1.05,2.88,4,4,0,0,0,2.85,1c1.51,0,2.51-.45,3-1.33a7,7,0,0,0,.9-2.65h8a11.45,11.45,0,0,1-6.94,11,12.47,12.47,0,0,1-4.92.93,12.18,12.18,0,0,1-6.35-1.56,10.54,10.54,0,0,1-5.19-7.72,29,29,0,0,1-.31-4.45v-13a29.14,29.14,0,0,1,.31-4.45,10.54,10.54,0,0,1,5.19-7.72A12.18,12.18,0,0,1,423.27,39a12.52,12.52,0,0,1,5,.94A11,11,0,0,1,432,42.52a12.78,12.78,0,0,1,3.12,8.81ZM419.37,56h7.8V51.49a4.81,4.81,0,0,0-1.05-3.39,4.16,4.16,0,0,0-5.7,0,4.81,4.81,0,0,0-1.05,3.39Z"/><path class="cls-1" d="M225.78,172.62v-6.31l12.87-26.21H226.79v-7H247.7v6.32l-12.87,25.74H247.7v7.48Z"/><path class="cls-1" d="M267.35,172.62v-4.05h-.15a14.91,14.91,0,0,1-3.16,3.35,7.49,7.49,0,0,1-4.49,1.17,9.79,9.79,0,0,1-2.84-.43,7.21,7.21,0,0,1-2.77-1.6,7.58,7.58,0,0,1-2.15-3.15,14.85,14.85,0,0,1-.82-5.35,27.83,27.83,0,0,1,.55-5.89,9.37,9.37,0,0,1,2-4.25,8.51,8.51,0,0,1,3.82-2.46,19.69,19.69,0,0,1,6.16-.81h.86a4.61,4.61,0,0,1,.86.07,4.24,4.24,0,0,0,.93.08,9.72,9.72,0,0,1,1.17.08v-4.13a6,6,0,0,0-.86-3.36,3.43,3.43,0,0,0-3.12-1.32,4.51,4.51,0,0,0-2.84,1,4.83,4.83,0,0,0-1.68,3h-7.72a12.73,12.73,0,0,1,3.59-8.58,11.25,11.25,0,0,1,3.74-2.45,12.79,12.79,0,0,1,4.91-.9,13.76,13.76,0,0,1,4.68.78,10.75,10.75,0,0,1,3.83,2.34,11.37,11.37,0,0,1,2.49,3.9,14.52,14.52,0,0,1,.94,5.46v27.53Zm0-17a12.52,12.52,0,0,0-2.18-.23,7.86,7.86,0,0,0-4.41,1.2q-1.83,1.22-1.83,4.41a5.81,5.81,0,0,0,1.09,3.67,3.65,3.65,0,0,0,3,1.4,3.94,3.94,0,0,0,3.16-1.32,5.65,5.65,0,0,0,1.13-3.75Z"/><path class="cls-1" d="M303.62,177.23a4.45,4.45,0,0,0,1.13,2.65,3.82,3.82,0,0,0,3.08,1.25,3.22,3.22,0,0,0,2.81-1.21,5.23,5.23,0,0,0,.86-3.08V169h-.16a9.48,9.48,0,0,1-3.16,3,8.4,8.4,0,0,1-4.25,1.05c-3.32,0-5.64-1.25-6.94-3.74a10.39,10.39,0,0,1-1-3.28,34.33,34.33,0,0,1-.31-5.22V145.79a60.26,60.26,0,0,1,.23-6.32,7.51,7.51,0,0,1,3.67-5.85,7.94,7.94,0,0,1,4.44-1,9,9,0,0,1,2.54.31,7.89,7.89,0,0,1,1.91.86,8,8,0,0,1,1.56,1.29c.47.49,1,1,1.48,1.6v-3.59h8v44.38a13.36,13.36,0,0,1-.67,4.09,10.1,10.1,0,0,1-2.14,3.71A11,11,0,0,1,312.9,188a12.69,12.69,0,0,1-5.38,1.05,13,13,0,0,1-3.74-.58,9.89,9.89,0,0,1-3.59-2,11.18,11.18,0,0,1-2.93-3.55,15.54,15.54,0,0,1-1.59-5.73Zm0-16.77a6.33,6.33,0,0,0,.82,3.27,3.25,3.25,0,0,0,3.08,1.41,3.76,3.76,0,0,0,2.85-1.21,4.37,4.37,0,0,0,1.13-3.08V145.48a5.55,5.55,0,0,0-1.09-3.55,3.51,3.51,0,0,0-2.89-1.36,3.23,3.23,0,0,0-3,1.48,7.17,7.17,0,0,0-.94,3.9Z"/><path class="cls-1" d="M326,172.62V133.08H334v4.21a23.84,23.84,0,0,1,4.76-3.43,12.16,12.16,0,0,1,5.77-1.25V141a6.47,6.47,0,0,0-2.42-.46,9.33,9.33,0,0,0-2.69.43,6.86,6.86,0,0,0-2.61,1.44,7.49,7.49,0,0,0-2,2.65,9.42,9.42,0,0,0-.78,4.06v23.47Z"/><path class="cls-1" d="M362.28,172.62v-4.05h-.16a14.69,14.69,0,0,1-3.16,3.35,7.46,7.46,0,0,1-4.48,1.17,9.81,9.81,0,0,1-2.85-.43,7.36,7.36,0,0,1-2.77-1.6,7.56,7.56,0,0,1-2.14-3.15,14.64,14.64,0,0,1-.82-5.35,28.56,28.56,0,0,1,.54-5.89,9.47,9.47,0,0,1,2-4.25,8.56,8.56,0,0,1,3.82-2.46,19.76,19.76,0,0,1,6.17-.81h.85a4.61,4.61,0,0,1,.86.07,4.28,4.28,0,0,0,.94.08,10,10,0,0,1,1.17.08v-4.13a6.09,6.09,0,0,0-.86-3.36,3.43,3.43,0,0,0-3.12-1.32,4.54,4.54,0,0,0-2.85,1,4.82,4.82,0,0,0-1.67,3h-7.73a12.77,12.77,0,0,1,3.59-8.58,11.29,11.29,0,0,1,3.75-2.45,12.75,12.75,0,0,1,4.91-.9,13.85,13.85,0,0,1,4.68.78,10.71,10.71,0,0,1,3.82,2.34,11.53,11.53,0,0,1,2.5,3.9,14.73,14.73,0,0,1,.93,5.46v27.53Zm0-17a12.62,12.62,0,0,0-2.19-.23,7.85,7.85,0,0,0-4.4,1.2q-1.85,1.22-1.84,4.41a5.81,5.81,0,0,0,1.1,3.67,3.63,3.63,0,0,0,3,1.4,4,4,0,0,0,3.16-1.32,5.65,5.65,0,0,0,1.13-3.75Z"/><path class="cls-1" d="M376.08,172.62V133.08h8v3.82h.15a11.47,11.47,0,0,1,3-3.08,7.69,7.69,0,0,1,4.48-1.21,9.09,9.09,0,0,1,3,.51,6.92,6.92,0,0,1,2.65,1.67,8.52,8.52,0,0,1,1.87,3,12.51,12.51,0,0,1,.7,4.48v30.34h-7.95V145.25a5.3,5.3,0,0,0-1-3.44,3.5,3.5,0,0,0-2.88-1.24,3.34,3.34,0,0,0-3.12,1.4A7.79,7.79,0,0,0,384,146v26.59Z"/><path class="cls-1" d="M406.42,125v-8h8v8Zm0,47.58V133.08h8v39.54Z"/><path class="cls-1" d="M429.36,161.24a3.81,3.81,0,0,0,1.05,2.88,3.91,3.91,0,0,0,2.84,1c1.51,0,2.51-.44,3-1.33a7.32,7.32,0,0,0,.9-2.65h7.95a11.45,11.45,0,0,1-6.94,11,12.44,12.44,0,0,1-4.92.93,12.18,12.18,0,0,1-6.35-1.56,10.54,10.54,0,0,1-5.19-7.72,29,29,0,0,1-.31-4.45v-13a29.23,29.23,0,0,1,.31-4.45,10.54,10.54,0,0,1,5.19-7.72,12.18,12.18,0,0,1,6.35-1.56,12.53,12.53,0,0,1,5,.94,11.07,11.07,0,0,1,3.78,2.57,13.22,13.22,0,0,1,3.12,9.13h-7.95a5.07,5.07,0,0,0-1.06-3.55,4.15,4.15,0,0,0-5.69,0,4.81,4.81,0,0,0-1.05,3.39Z"/><path class="cls-1" d="M464.84,172.62v-4.05h-.15a14.91,14.91,0,0,1-3.16,3.35,7.49,7.49,0,0,1-4.49,1.17,9.79,9.79,0,0,1-2.84-.43,7.21,7.21,0,0,1-2.77-1.6,7.58,7.58,0,0,1-2.15-3.15,14.85,14.85,0,0,1-.82-5.35,28.51,28.51,0,0,1,.55-5.89,9.37,9.37,0,0,1,2-4.25,8.51,8.51,0,0,1,3.82-2.46,19.73,19.73,0,0,1,6.16-.81h.86a4.61,4.61,0,0,1,.86.07,4.24,4.24,0,0,0,.93.08,9.72,9.72,0,0,1,1.17.08v-4.13a6.09,6.09,0,0,0-.85-3.36,3.46,3.46,0,0,0-3.12-1.32,4.54,4.54,0,0,0-2.85,1,4.83,4.83,0,0,0-1.68,3h-7.72a12.73,12.73,0,0,1,3.59-8.58,11.35,11.35,0,0,1,3.74-2.45,12.84,12.84,0,0,1,4.92-.9,13.85,13.85,0,0,1,4.68.78,10.71,10.71,0,0,1,3.82,2.34,11.37,11.37,0,0,1,2.49,3.9,14.52,14.52,0,0,1,.94,5.46v27.53Zm0-17a12.52,12.52,0,0,0-2.18-.23,7.86,7.86,0,0,0-4.41,1.2q-1.83,1.22-1.83,4.41a5.81,5.81,0,0,0,1.09,3.67,3.65,3.65,0,0,0,3,1.4,3.92,3.92,0,0,0,3.16-1.32,5.6,5.6,0,0,0,1.13-3.75Zm8,32.76a15.61,15.61,0,0,1-3.08,1.17,16.56,16.56,0,0,1-4.49.55,8.1,8.1,0,0,1-5.49-1.92,6.45,6.45,0,0,1-2.23-5.18,9.22,9.22,0,0,1,2.11-6.09,16.5,16.5,0,0,1,2.3-2.18c.86-.68,1.81-1.38,2.85-2.11h4a18.28,18.28,0,0,0-3.67,4.84,10.82,10.82,0,0,0-1.33,5,4,4,0,0,0,1.13,3,3.78,3.78,0,0,0,2.69,1.09,8.77,8.77,0,0,0,2.31-.27,8.68,8.68,0,0,0,1.83-.75Z"/><rect class="cls-2" x="5" y="5" width="190" height="190" rx="28.32"/><polygon class="cls-3" points="96.4 12.21 93.61 20.81 84.57 20.81 91.88 26.12 89.09 34.71 96.4 29.4 103.71 34.71 100.92 26.12 108.23 20.81 99.19 20.81 96.4 12.21"/><polygon class="cls-3" points="99.19 170.06 96.4 161.47 93.61 170.06 84.57 170.06 91.88 175.37 89.09 183.97 96.4 178.65 103.71 183.97 100.92 175.37 108.23 170.06 99.19 170.06"/><polygon class="cls-3" points="21.77 104.03 29.08 109.34 26.29 100.75 33.6 95.43 24.57 95.43 21.77 86.84 18.98 95.43 9.94 95.43 17.25 100.75 14.46 109.34 21.77 104.03"/><polygon class="cls-3" points="59.09 22.21 56.29 30.81 47.26 30.81 54.57 36.12 51.77 44.71 59.09 39.4 66.4 44.71 63.6 36.12 70.91 30.81 61.88 30.81 59.09 22.21"/><polygon class="cls-3" points="31.77 49.53 28.98 58.12 19.94 58.12 27.25 63.43 24.46 72.03 31.77 66.72 39.08 72.03 36.29 63.43 43.6 58.12 34.56 58.12 31.77 49.53"/><polygon class="cls-3" points="34.56 132.75 31.77 124.15 28.98 132.75 19.94 132.75 27.25 138.06 24.46 146.65 31.77 141.34 39.08 146.65 36.29 138.06 43.6 132.75 34.56 132.75"/><polygon class="cls-3" points="61.88 160.06 59.09 151.47 56.29 160.06 47.26 160.06 54.57 165.37 51.77 173.97 59.09 168.66 66.4 173.97 63.6 165.37 70.91 160.06 61.88 160.06"/><polygon class="cls-3" points="182.85 95.43 173.82 95.43 171.02 86.84 168.23 95.43 159.19 95.43 166.51 100.75 163.71 109.34 171.02 104.03 178.34 109.34 175.54 100.75 182.85 95.43"/><polygon class="cls-3" points="133.71 22.21 130.92 30.81 121.88 30.81 129.19 36.12 126.4 44.71 133.71 39.4 141.02 44.71 138.23 36.12 145.54 30.81 136.5 30.81 133.71 22.21"/><polygon class="cls-3" points="156.51 63.43 153.72 72.03 161.03 66.72 168.34 72.03 165.54 63.43 172.85 58.12 163.82 58.12 161.03 49.53 158.23 58.12 149.2 58.12 156.51 63.43"/><polygon class="cls-3" points="163.82 132.75 161.03 124.15 158.23 132.75 149.2 132.75 156.51 138.06 153.72 146.65 161.03 141.34 168.34 146.65 165.54 138.06 172.85 132.75 163.82 132.75"/><polygon class="cls-3" points="136.5 160.06 133.71 151.47 130.92 160.06 121.88 160.06 129.19 165.37 126.4 173.97 133.71 168.66 141.02 173.97 138.23 165.37 145.54 160.06 136.5 160.06"/><rect class="cls-4" x="102.31" y="98.09" width="45.05" height="15.92"/><rect class="cls-5" x="102.31" y="82.16" width="45.05" height="15.92"/><rect class="cls-6" x="45.43" y="82.23" width="14.65" height="31.72"/><rect class="cls-7" x="75.22" y="82.23" width="15.26" height="31.72"/><rect class="cls-8" x="60.07" y="82.23" width="15.15" height="31.72"/></svg>