<svg xmlns="http://www.w3.org/2000/svg" xmlns:xlink="http://www.w3.org/1999/xlink" viewBox="0 0 1445.8 590.01"><defs><style>.cls-1{fill:none;}.cls-2{fill:#cac9c9;}.cls-2,.cls-3{opacity:0.2;}.cls-4{fill:url(#New_Gradient_Swatch_2);}.cls-5{fill:url(#New_Gradient_Swatch_2-2);}.cls-6{fill:url(#New_Gradient_Swatch_2-3);}.cls-7{fill:#1b1d1e;}</style><linearGradient id="New_Gradient_Swatch_2" x1="580.44" y1="356.04" x2="589.59" y2="356.04" gradientUnits="userSpaceOnUse"><stop offset="0" stop-color="#1b9ec1"/><stop offset="0.28" stop-color="#0ea2b2"/><stop offset="0.63" stop-color="#03a6a7"/><stop offset="1" stop-color="#00a7a3"/></linearGradient><linearGradient id="New_Gradient_Swatch_2-2" x1="585.81" y1="343.62" x2="586.01" y2="343.62" xlink:href="#New_Gradient_Swatch_2"/><linearGradient id="New_Gradient_Swatch_2-3" x1="101.51" y1="313.62" x2="726.84" y2="313.62" xlink:href="#New_Gradient_Swatch_2"/></defs><g id="Layer_2" data-name="Layer 2"><polygon class="cls-1" points="622.62 435.93 639.68 437.55 639.68 437.54 622.62 435.93"/><polygon class="cls-1" points="594.72 394.37 593.17 400.57 596.39 405.29 593.17 400.57 594.72 394.37"/><polygon class="cls-1" points="636.14 444.38 634.12 448.28 649.23 459.81 649.23 459.81 634.12 448.28 636.14 444.38"/><polygon class="cls-1" points="589.59 367.97 590.65 372.06 589.59 367.97 589.59 367.97"/><path class="cls-1" d="M367.84,260.54l-3.42-4.5c-6.74,1.81-13.45,3.41-19.17,4.41Q356.68,260.42,367.84,260.54Z"/><polygon class="cls-1" points="654 442.72 665.1 445.86 654 442.71 654 442.72"/><polygon class="cls-1" points="675.07 448.68 671.93 453.53 675.07 448.68 675.07 448.68"/><polygon class="cls-1" points="701.28 469.31 706.08 475.71 709.73 477.28 706.08 475.71 701.28 469.31"/><path class="cls-1" d="M400.69,244.93l-2,.67c17.22,2.25,35,5.35,53.3,9.46l-2-8.44C424.27,246.22,400.69,244.93,400.69,244.93Z"/><path class="cls-1" d="M495.3,241.82l-5.92-1.19-1,1.49C490.76,242.06,493.08,242,495.3,241.82Z"/><polygon class="cls-1" points="682.95 457.92 684.61 455.83 689.81 458 684.61 455.83 682.95 457.92"/><polygon class="cls-1" points="656.78 453.85 656.78 453.84 653.25 456.63 656.78 453.85"/><rect class="cls-1" x="788.71" y="355.84" width="13.27" transform="translate(-74.83 311.11) rotate(-21.16)"/><polygon class="cls-1" points="805.47 478.49 801.54 482.43 805.47 478.5 796.33 457.03 796.33 457.03 805.47 478.49"/><polygon class="cls-1" points="800.77 323.1 781.22 279.71 772.8 276.81 781.22 279.71 800.77 323.1"/><rect class="cls-1" x="816.21" y="420.05" width="6.76"/><path class="cls-1" d="M393.94,253.58l5.93,12.24c20.17,4.33,39.53,8.91,58,13.62l-2.64-11C433.74,262.52,413.28,257.63,393.94,253.58Z"/><polygon class="cls-1" points="758.16 472.13 749.66 472.68 758.16 472.13 776.05 467.36 778.07 468.66 776.05 467.36 758.16 472.13"/><rect class="cls-1" x="725.96" y="474.92" height="8.35"/><path class="cls-2" d="M237.82,256.9c-15.12,2-28.36,4.2-39.6,6.36l-.39,5.28q24.31-2.64,48-4.35l-8-7.28Z"/><path class="cls-2" d="M194.33,316.34H168.24l-15.46,38.9-22.23,9.67v18.84l31.89-6.83H190l-7.25,21.33L114.6,421.44H221.88l65.23-15.94-24.64-18.85,33.34-20.29V341.71l-31.89,5.8-4.35-20.29,2.9-47.84-9.53-8.69q-27.25,1.35-55.6,4.58Z"/><path class="cls-2" d="M229.13,220.15l-23.92-7.46,39.86-52.18-39.86-8.7,29.72-33.35-21.75-11.59-42,33.34V201.1L161,256.91h33.64c12.61-3.19,26.35-6.14,41.15-8.63Z"/><path class="cls-3" d="M128.93,278.66l4.52-10.4,19.33-1.93-8.15-20.12-6.89-3,5.41-6.86L132.34,230l.49-4.25-38.35-5.59-3.55,5.59V252.8H65.78L64,247.19H47.28l5.89,14.87h0l-16.37,12,16.3,14.67-10.25,16,9.56,2.7-.83,3.6-12.66,1.07-9.34,4.25L34,324.65,15.54,334,31,355.24l38.65-13.53,34.8-1.93,19.32-23.44V290.49l1.69-3.87q-11.91,2.4-24,5.16S111.1,286.16,128.93,278.66Z"/><path class="cls-3" d="M671.39,352.15c-28.87-14.48-56.92-27.19-84-38.36l-6.93,2.55C637.87,336.34,671.39,352.15,671.39,352.15Z"/><path class="cls-3" d="M580.79,318.06,586,344.12,580.45,360l9.14,8h0l1.06,4.09,4.9,19-.83,3.34-1.55,6.2,3.22,4.72,7.11,10.39L601.91,434l20.71,2,17.06,1.61h0l-3.54,6.83-2,3.9,15.11,11.53,4-3.18,3.52-2.79L654,442.71h0l11.1,3.15,10,2.82h0l-3.14,4.85-1.23,1.91,10.73,4.37,1.51-1.89,1.67-2.09,5.2,2.17,4.34,1.81,7.13,9.5,4.8,6.4,3.65,1.57,1.92.82,4.77-8,9.54,4.77h0v8.35h13.52v-9.94l10.18-.65,8.5-.55,17.89-4.77,2,1.3,22.63,14.61.84-.84,3.93-3.94L796.33,457h0l19.88-37H823l1.59-7.15-5.17-8-17.49-48.1-13.12-2h0v-8l15.9-15.11-3.91-8.69-19.55-43.39-8.42-2.9-4.3-1.48-66,13.12h0l-16.7,9.15-20.67-8,2.38-9.93,15.51-.8,4.77-4.37-20.28-4L627,290l-6.36,11.53-19.39,7.13c40.56,20.16,82.57,45.68,125.63,77.71C726.84,386.41,673.06,350.17,580.79,318.06Z"/><path class="cls-2" d="M531.16,300.15l3.85,1.19-2.9-1.67Z"/><path class="cls-2" d="M488.39,242.12l1-1.49L446.5,232l1.94,8.1A342.64,342.64,0,0,0,488.39,242.12Z"/><path class="cls-2" d="M450,246.62l2,8.44q12.84,2.9,26,6.46l.44-4.61,7.08-10.56C474.71,246.79,462.12,246.8,450,246.62Z"/><path class="cls-2" d="M455.19,268.41l2.64,11q9.19,2.35,18.07,4.74l.9-9.59C469.5,272.42,462.28,270.35,455.19,268.41Z"/><path class="cls-2" d="M503.11,220.15l-13-16.16,17.39-11.59-20.29-11.6-38,34.42c11.9,3.1,32.63,8.78,47.63,14.4Z"/><polygon class="cls-2" points="395.84 12.64 395.84 130.06 445.13 157.61 495.86 101.07 519.06 173.55 552.4 270.56 611.84 220.15 601.69 98.17 650.98 88.02 614.74 48.88 617.92 0 416.62 0 395.84 12.64"/><polygon class="cls-3" points="778.07 468.66 800.7 483.27 801.54 482.43 800.7 483.27 778.07 468.66"/><polygon class="cls-2" points="778.07 468.66 800.7 483.27 801.54 482.43 800.7 483.27 778.07 468.66"/><polygon class="cls-3" points="590.65 372.06 595.55 391.03 594.72 394.37 595.55 391.03 590.65 372.06"/><polygon class="cls-2" points="590.65 372.06 595.55 391.03 594.72 394.37 595.55 391.03 590.65 372.06"/><polygon class="cls-3" points="603.5 415.68 596.39 405.29 603.5 415.68 601.91 433.97 622.62 435.93 601.91 433.97 603.5 415.68"/><polygon class="cls-2" points="603.5 415.68 596.39 405.29 603.5 415.68 601.91 433.97 622.62 435.93 601.91 433.97 603.5 415.68"/><polygon class="cls-3" points="649.23 459.81 653.25 456.63 649.23 459.81 649.23 459.81"/><polygon class="cls-2" points="649.23 459.81 653.25 456.63 649.23 459.81 649.23 459.81"/><polygon class="cls-3" points="824.56 412.9 822.97 420.05 822.97 420.05 824.56 412.89 819.39 404.94 801.9 356.84 801.9 356.84 819.39 404.94 824.56 412.9"/><polygon class="cls-2" points="824.56 412.9 822.97 420.05 822.97 420.05 824.56 412.89 819.39 404.94 801.9 356.84 801.9 356.84 819.39 404.94 824.56 412.9"/><polygon class="cls-3" points="639.68 437.55 636.14 444.38 639.68 437.55 639.68 437.55"/><polygon class="cls-2" points="639.68 437.55 636.14 444.38 639.68 437.55 639.68 437.55"/><polygon class="cls-3" points="788.78 346.9 788.78 354.85 788.78 354.85 788.78 346.9 804.68 331.79 800.77 323.1 804.68 331.79 788.78 346.9"/><polygon class="cls-2" points="788.78 346.9 788.78 354.85 788.78 354.85 788.78 346.9 804.68 331.79 800.77 323.1 804.68 331.79 788.78 346.9"/><rect class="cls-3" x="785.28" y="438.54" width="41.98" transform="translate(-109.99 385.05) rotate(-25.2)"/><rect class="cls-2" x="785.28" y="438.54" width="41.98" transform="translate(-109.99 385.05) rotate(-25.2)"/><polygon class="cls-3" points="768.5 275.33 772.8 276.81 768.5 275.33 702.5 288.45 702.5 288.45 768.5 275.33"/><polygon class="cls-2" points="768.5 275.33 772.8 276.81 768.5 275.33 702.5 288.45 702.5 288.45 768.5 275.33"/><polygon class="cls-3" points="689.81 458 694.15 459.81 701.28 469.31 694.15 459.81 689.81 458"/><polygon class="cls-2" points="689.81 458 694.15 459.81 701.28 469.31 694.15 459.81 689.81 458"/><polygon class="cls-3" points="739.48 483.27 725.96 483.27 725.96 483.27 739.48 483.27 739.48 473.33 749.66 472.68 739.48 473.33 739.48 483.27"/><polygon class="cls-2" points="739.48 483.27 725.96 483.27 725.96 483.27 739.48 483.27 739.48 473.33 749.66 472.68 739.48 473.33 739.48 483.27"/><polygon class="cls-3" points="670.7 455.44 671.93 453.53 670.69 455.44 681.43 459.81 682.95 457.92 681.43 459.81 670.7 455.44"/><polygon class="cls-2" points="670.7 455.44 671.93 453.53 670.69 455.44 681.43 459.81 682.95 457.92 681.43 459.81 670.7 455.44"/><polygon class="cls-3" points="665.1 445.86 675.07 448.68 675.07 448.68 665.1 445.86"/><polygon class="cls-2" points="665.1 445.86 675.07 448.68 675.07 448.68 665.1 445.86"/><polygon class="cls-3" points="716.42 470.15 711.65 478.1 709.73 477.28 711.65 478.1 716.42 470.15 725.96 474.92 725.96 474.92 716.42 470.15"/><polygon class="cls-2" points="716.42 470.15 711.65 478.1 709.73 477.28 711.65 478.1 716.42 470.15 725.96 474.92 725.96 474.92 716.42 470.15"/><rect class="cls-3" x="655.39" y="442.54" height="11.47" transform="translate(-137.89 482.89) rotate(-36.87)"/><rect class="cls-2" x="655.39" y="442.54" height="11.47" transform="translate(-137.89 482.89) rotate(-36.87)"/><polygon class="cls-4" points="580.45 360.02 586.01 344.12 586.01 344.11 580.44 360.02 589.59 367.97 589.59 367.97 580.45 360.02"/><polygon class="cls-5" points="585.81 343.13 586.01 344.11 586.01 344.11 585.81 343.13"/><path class="cls-6" d="M726.84,386.41c-43.06-32-85.07-57.55-125.63-77.71A672.24,672.24,0,0,0,478,261.52q-13.17-3.57-26-6.46c-18.29-4.11-36.08-7.21-53.3-9.46-5.2,1.75-19.81,6.56-34.29,10.44l3.42,4.5q-11.14-.14-22.59-.09c-6.14,1.07-11.15,1.45-13.84.64a3.45,3.45,0,0,1-1.07-.53c-27.19.37-55.46,1.51-84.53,3.63q-23.66,1.72-48,4.35-22.31,2.44-45.05,5.71s15.81-5.31,45.44-11c11.24-2.16,24.48-4.36,39.6-6.36a866.48,866.48,0,0,1,98.09-7.07c2.81-2.75,6.3-5.72,9.93-8.64a545,545,0,0,0-110.06,7.09c-14.8,2.49-28.54,5.44-41.15,8.63a461.51,461.51,0,0,0-65.7,21.75c-17.83,7.5-27.42,13.12-27.42,13.12q12.06-2.77,24-5.16c24.45-4.92,48.42-8.65,71.87-11.35q28.32-3.27,55.6-4.58a861.31,861.31,0,0,1,206.3,14.67q8.76,1.69,17.29,3.52c18.06,3.87,35.31,8.17,51.7,12.73q7.38,2.06,14.53,4.19,17.24,5.13,33,10.54,2.51.86,5,1.72l5,25.07-5-25.07C673.06,350.17,726.84,386.41,726.84,386.41ZM535,301.34l-3.85-1.19c-17.15-5.31-35.62-10.69-55.26-16q-8.88-2.39-18.07-4.74c-18.43-4.71-37.79-9.29-58-13.62l-5.93-12.24c19.34,4,39.8,8.94,61.25,14.83,7.09,1.94,14.31,4,21.61,6.18a1146.61,1146.61,0,0,1,110.57,39.2c27.1,11.17,55.15,23.88,84,38.36,0,0-33.52-15.81-90.95-35.81C566.64,311.53,551.45,306.48,535,301.34Z"/><path class="cls-7" d="M495.3,241.82c-2.22.15-4.54.24-6.91.3l-2.84,4.23c13.89-.56,24.88-1.83,28.21-4.29,4.15-3.05-4.4-7.72-17-12.44l-7.38,11Z"/><path class="cls-7" d="M400.69,244.93s23.58,1.29,49.3,1.69l-1.55-6.52c-19.22-1.95-34.72-4.56-34.72-4.56l15.88-6.94,16.9,3.4-2.82-11.85,5.45-4.93c-5.72-1.5-9.4-2.39-9.4-2.39s37.75-28.41,18.67-32.35-61.18,22.07-61.18,22.07L359,201.27l-1.3-10.56c-2.48-22.14-12.14-6.68-12.14-6.68l-4.71,6.57s-4.33,6.7-5.29,13.88c-.69,5.11.33,10.47,5.82,13.85l26.91,6.44s-11.83,7.94-22.41,16.42c17,.62,34.6,2,52.87,4.41Z"/><path class="cls-7" d="M335.91,249.83c-5,4.88-7.85,9-5.57,10.73,5-.06,10-.1,14.91-.11,5.72-1,12.43-2.6,19.17-4.41l-4.82-6.33Q347.44,249.62,335.91,249.83Z"/><path class="cls-7" d="M448.44,240.1l1.55,6.52c12.13.18,24.72.17,35.56-.27l2.84-4.23A342.64,342.64,0,0,1,448.44,240.1Z"/><path class="cls-7" d="M446.5,232l42.88,8.63,7.38-11c-15-5.62-35.73-11.3-47.63-14.4l-5.45,4.93Z"/><path class="cls-7" d="M359.6,249.71l4.82,6.33c14.48-3.88,29.09-8.69,34.29-10.44-18.27-2.38-35.92-3.79-52.87-4.41-3.63,2.92-7.12,5.89-9.93,8.64Q347.43,249.64,359.6,249.71Z"/><path class="cls-7" d="M331.41,261.09c2.69.81,7.7.43,13.84-.64-4.94,0-9.9.05-14.91.11A3.45,3.45,0,0,0,331.41,261.09Z"/><path class="cls-2" d="M686.89,0l3.23,46,56.54,26.1,68.13-56.54L861.18,30,824.56,67.73,751,93.82l18.85,40.59L768.4,172.1,738,154.71,716.21,172.1l2.9,39.14,8.7,44.94L702.5,270.56v17.89l66-13.12,4.3,1.48,8.42,2.9,19.55,43.39,3.91,8.69-15.9,15.11v8l13.12,2h0l17.49,48.1,5.17,7.95L823,420.05h-6.76l-19.88,37,9.14,21.47-3.93,3.93-.84.84-22.63-14.61-2-1.3-17.89,4.78-8.5.54-10.18.65v9.94H726v-8.35l-9.54-4.77-4.77,8-1.92-.82-3.65-1.57-4.8-6.4-7.13-9.5L689.81,458l-5.2-2.17-1.67,2.09-1.51,1.89-10.74-4.37,1.24-1.91,3.14-4.85-10-2.82L654,442.72l2.78,11.12h0l-3.52,2.78-4,3.18h0l-15.11-11.53,2-3.9,3.54-6.83-17.06-1.62-20.71-2,1.59-18.29-7.11-10.39-3.22-4.72,1.55-6.2.83-3.34-4.9-19L589.59,368l-9.15-8L586,344.11l-5.23-26.05q-2.46-.87-5-1.72H561.1L542.76,305.8q-7.14-2.13-14.53-4.19l-29.47,14.73-22.23-27.46q-8.52-1.81-17.29-3.52l6.18,25.91-60.88,20.3L336.4,407,290,421.44l-20.29,39.15L232,476.53l-26.82-26.09-16.67,13,10.14,33.35-62.33-20.3-13,37.69,43.49,15.95L186.44,590h819.2l6.3-41,31.9-44.93,43.49,10.14-17.4,36.24,34.79,2.9V578l20.3,4.35,14.49-31.9,21.75-7.24-5.8-24.65L1122.12,507l53.64-65.23,40.59-14.5,1.45,3.14V0Z"/><polygon class="cls-2" points="1196.05 463.48 1210.55 483.27 1207.65 509.87 1175.76 518.57 1175.76 531.62 1217.8 535.33 1217.8 450.44 1196.05 463.48"/><polygon class="cls-7" points="1217.8 430.38 1217.8 450.44 1225.04 446.09 1217.8 430.38"/></g></svg>