<svg id="artwork" xmlns="http://www.w3.org/2000/svg" viewBox="0 0 362.83 362.83"><defs><style>.cls-1{fill:#283385;}.cls-2{fill:#ffce00;}.cls-3{fill:#c82118;}.cls-4{fill:#e0e0e0;}.cls-5{fill:#3b9f36;}.cls-6{fill:#dd7126;}.cls-7{fill:#e8e6e6;}</style></defs><rect class="cls-1" width="362.83" height="362.83" rx="28.32"/><polygon class="cls-2" points="174.54 13.78 169.21 30.19 151.95 30.19 165.91 40.33 160.58 56.74 174.54 46.6 188.5 56.74 183.17 40.33 197.13 30.19 179.87 30.19 174.54 13.78"/><polygon class="cls-2" points="179.87 315.21 174.54 298.8 169.21 315.21 151.95 315.21 165.91 325.35 160.58 341.76 174.54 331.62 188.5 341.76 183.17 325.35 197.13 315.21 179.87 315.21"/><polygon class="cls-2" points="32.03 189.11 45.99 199.25 40.66 182.84 54.62 172.7 37.36 172.7 32.03 156.28 26.7 172.7 9.44 172.7 23.4 182.84 18.07 199.25 32.03 189.11"/><polygon class="cls-2" points="103.28 32.87 97.95 49.28 80.69 49.28 94.66 59.42 89.32 75.83 103.28 65.69 117.25 75.83 111.91 59.42 125.87 49.28 108.62 49.28 103.28 32.87"/><polygon class="cls-2" points="51.12 85.03 45.79 101.44 28.53 101.44 42.49 111.58 37.16 128 51.12 117.85 65.08 128 59.75 111.58 73.71 101.44 56.45 101.44 51.12 85.03"/><polygon class="cls-2" points="56.45 243.95 51.12 227.54 45.79 243.95 28.53 243.95 42.49 254.09 37.16 270.51 51.12 260.36 65.08 270.51 59.75 254.09 73.71 243.95 56.45 243.95"/><polygon class="cls-2" points="108.62 296.11 103.28 279.7 97.95 296.11 80.69 296.11 94.66 306.26 89.32 322.67 103.28 312.53 117.25 322.67 111.91 306.26 125.87 296.11 108.62 296.11"/><polygon class="cls-2" points="339.64 172.7 322.38 172.7 317.05 156.28 311.72 172.7 294.46 172.7 308.42 182.84 303.09 199.25 317.05 189.11 331.01 199.25 325.68 182.84 339.64 172.7"/><polygon class="cls-2" points="245.79 32.87 240.46 49.28 223.21 49.28 237.16 59.42 231.83 75.83 245.79 65.69 259.75 75.83 254.42 59.42 268.38 49.28 251.13 49.28 245.79 32.87"/><polygon class="cls-2" points="289.33 111.58 284 128 297.96 117.85 311.92 128 306.58 111.58 320.55 101.44 303.29 101.44 297.96 85.03 292.62 101.44 275.37 101.44 289.33 111.58"/><polygon class="cls-2" points="303.29 243.95 297.96 227.54 292.62 243.95 275.37 243.95 289.33 254.09 284 270.51 297.96 260.36 311.92 270.51 306.58 254.09 320.55 243.95 303.29 243.95"/><polygon class="cls-2" points="251.13 296.11 245.79 279.7 240.46 296.11 223.21 296.11 237.17 306.26 231.83 322.67 245.79 312.53 259.75 322.67 254.42 306.26 268.38 296.11 251.13 296.11"/><rect class="cls-3" x="185.84" y="177.77" width="86.04" height="30.41"/><rect class="cls-4" x="185.84" y="147.36" width="86.04" height="30.41"/><rect class="cls-5" x="77.2" y="147.48" width="27.97" height="60.57"/><rect class="cls-6" x="134.1" y="147.48" width="29.14" height="60.57"/><rect class="cls-7" x="105.17" y="147.48" width="28.93" height="60.57"/></svg>